<svg id="Grupo_114" data-name="Grupo 114" xmlns="http://www.w3.org/2000/svg" xmlns:xlink="http://www.w3.org/1999/xlink" width="57.884" height="103.016" viewBox="0 0 57.884 103.016">
  <defs>
    <clipPath id="clip-path">
      <rect id="Rectángulo_398" data-name="Rectángulo 398" width="57.884" height="103.016" fill="none"/>
    </clipPath>
  </defs>
  <g id="Grupo_113" data-name="Grupo 113" transform="translate(0 0)" clip-path="url(#clip-path)">
    <path id="Trazado_52" data-name="Trazado 52" d="M27.679,89.958A16.079,16.079,0,1,0,11.6,73.879,16.09,16.09,0,0,0,27.679,89.958m0-28.831A12.752,12.752,0,1,1,14.927,73.879,12.826,12.826,0,0,1,27.679,61.127" transform="translate(1.263 6.294)" fill="#d50017"/>
    <path id="Trazado_53" data-name="Trazado 53" d="M16.754,71.436l3.992,3.881-1,5.544a1.659,1.659,0,0,0,.665,1.663,1.71,1.71,0,0,0,1.774.111l4.99-2.661,4.99,2.661a2.056,2.056,0,0,0,.776.222,1.789,1.789,0,0,0,1-.333,1.581,1.581,0,0,0,.665-1.663l-1-5.544L37.6,71.436a1.6,1.6,0,0,0,.444-1.663,1.717,1.717,0,0,0-1.331-1.109l-5.544-.887-2.55-4.99a1.73,1.73,0,0,0-1.442-.887,1.486,1.486,0,0,0-1.442.887l-2.55,4.99-5.544.887a1.717,1.717,0,0,0-1.331,1.109,1.413,1.413,0,0,0,.444,1.663m7.762-.554a1.717,1.717,0,0,0,1.22-.887l1.442-2.772,1.442,2.772a1.717,1.717,0,0,0,1.22.887l3.1.444-2.329,2.218a1.385,1.385,0,0,0-.444,1.442l.554,3.1-2.772-1.442a2.056,2.056,0,0,0-.776-.222,2.056,2.056,0,0,0-.776.222L23.629,78.09l.554-3.1a1.64,1.64,0,0,0-.444-1.442l-2.329-2.218Z" transform="translate(1.764 6.74)" fill="#d50017"/>
    <path id="Trazado_54" data-name="Trazado 54" d="M57.884,12.2A12.163,12.163,0,0,0,45.686,0H12.2A12.13,12.13,0,0,0,2.107,18.962L21.734,48.237H16.079A1.705,1.705,0,0,0,14.416,49.9v9.093a1.705,1.705,0,0,0,1.663,1.663h1.109a22.818,22.818,0,1,0,34.6,19.517A22.684,22.684,0,0,0,40.7,60.656h1.22a1.705,1.705,0,0,0,1.663-1.663V49.9a1.705,1.705,0,0,0-1.663-1.663H36.15L55.777,18.962A10.919,10.919,0,0,0,57.884,12.2M48.459,80.173A19.516,19.516,0,1,1,28.942,60.656,19.545,19.545,0,0,1,48.459,80.173M40.253,57.33H17.742V51.563H40.253ZM53.116,17.188,32.158,48.237H25.726L4.768,17.188A8.752,8.752,0,0,1,3.327,12.2,8.9,8.9,0,0,1,12.2,3.327H45.686A8.9,8.9,0,0,1,54.557,12.2a8.511,8.511,0,0,1-1.442,4.99" transform="translate(0 0)" fill="#d50017"/>
    <path id="Trazado_55" data-name="Trazado 55" d="M44.737,7.7H11.359A3.692,3.692,0,0,0,7.7,11.359a3.322,3.322,0,0,0,.665,2L26.773,40.634a1.691,1.691,0,0,0,1.331.776,1.345,1.345,0,0,0,1.331-.776l18.3-27.279a3.577,3.577,0,0,0,.665-2A3.692,3.692,0,0,0,44.737,7.7m.333,3.881L28.1,36.753,11.027,11.581v-.222a.294.294,0,0,1,.333-.333H44.737a.294.294,0,0,1,.333.333Z" transform="translate(0.838 0.838)" fill="#d50017"/>
  </g>
</svg>
