<svg xmlns="http://www.w3.org/2000/svg" xmlns:xlink="http://www.w3.org/1999/xlink" width="90.396" height="86.296" viewBox="0 0 90.396 86.296">
  <defs>
    <clipPath id="clip-path">
      <rect id="Rectángulo_397" data-name="Rectángulo 397" width="90.396" height="86.296" fill="none"/>
    </clipPath>
  </defs>
  <g id="Grupo_112" data-name="Grupo 112" transform="translate(0.081 0)">
    <g id="Grupo_111" data-name="Grupo 111" transform="translate(-0.081 0.001)" clip-path="url(#clip-path)">
      <path id="Trazado_51" data-name="Trazado 51" d="M45.2,0a3.091,3.091,0,0,0-2.865,1.733L40.084,6.609a2.2,2.2,0,0,1-1.742,1.261L33.007,8.5a3.229,3.229,0,0,0-1.768,5.443l3.944,3.645a2.2,2.2,0,0,1,.663,2.041L34.8,24.893a3.258,3.258,0,0,0,2.9,3.714,2.874,2.874,0,0,0,1.729-.351l4.694-2.614a2.182,2.182,0,0,1,2.149,0l4.69,2.614A3.231,3.231,0,0,0,55.6,24.893l-1.05-5.257a2.206,2.206,0,0,1,.663-2.046l3.944-3.645A3.228,3.228,0,0,0,57.394,8.5L52.05,7.871a2.181,2.181,0,0,1-1.733-1.261L48.063,1.733A3.09,3.09,0,0,0,45.2,0Zm0,5.335L46.581,8.33a6.321,6.321,0,0,0,4.988,3.618l3.276.386-2.419,2.241a6.3,6.3,0,0,0-1.907,5.859l.646,3.233L48.284,22.06a6.323,6.323,0,0,0-6.168,0l-2.882,1.608.646-3.233a6.3,6.3,0,0,0-1.906-5.859l-2.423-2.241,3.281-.386a6.3,6.3,0,0,0,4.984-3.622ZM38.52,32.876a5.167,5.167,0,0,0-5.136,5.136v33.9h-3.6V48.287a5.166,5.166,0,0,0-5.136-5.135l-13.352,0a5.166,5.166,0,0,0-5.136,5.135V71.916H5.136A5.167,5.167,0,0,0,0,77.051V81.16A5.166,5.166,0,0,0,5.136,86.3H85.26A5.165,5.165,0,0,0,90.4,81.16V77.051a5.167,5.167,0,0,0-5.136-5.136H84.234V54.45A5.166,5.166,0,0,0,79.1,49.316H65.746A5.165,5.165,0,0,0,60.61,54.45V71.916h-3.6v-33.9a5.166,5.166,0,0,0-5.136-5.135Zm0,4.109H51.872A1,1,0,0,1,52.9,38.011l0,33.9H37.492v-33.9a1,1,0,0,1,1.026-1.026ZM11.3,47.26H24.651a1,1,0,0,1,1.027,1.027V71.916H10.271V48.287A1,1,0,0,1,11.3,47.26Zm54.446,6.163H79.1a1,1,0,0,1,1.027,1.027V71.916H64.717V54.45A1,1,0,0,1,65.745,53.423ZM5.136,76.024H85.26a1,1,0,0,1,1.027,1.027V81.16a1,1,0,0,1-1.027,1.027H5.136A1,1,0,0,1,4.108,81.16V77.051a1,1,0,0,1,1.027-1.027" transform="translate(0 -0.001)" fill="#d50017"/>
    </g>
  </g>
</svg>
